HIERARCHY
ROOT Hips
{
	OFFSET -0.001795 -0.223333 0.028219
	CHANNELS 6 Xposition Yposition Zposition Zrotation Yrotation Xrotation 
	JOINT LeftUpLeg
	{
		OFFSET 0.069520 -0.091406 -0.006815
		CHANNELS 3 Zrotation Yrotation Xrotation
		JOINT LeftLeg
		{
			OFFSET 0.034277 -0.375199 -0.004496
			CHANNELS 3 Zrotation Yrotation Xrotation
			JOINT LeftFoot
			{
				OFFSET -0.013596 -0.397961 -0.043693
				CHANNELS 3 Zrotation Yrotation Xrotation
				JOINT LeftToe
				{
					OFFSET 0.026358 -0.055791 0.119288
					CHANNELS 3 Zrotation Yrotation Xrotation
					End Site
					{
						OFFSET 0.000000 0.000000 0.000000
					}
				}
			}
		}
	}
	JOINT RightUpLeg
	{
		OFFSET -0.067670 -0.090522 -0.004320
		CHANNELS 3 Zrotation Yrotation Xrotation
		JOINT RightLeg
		{
			OFFSET -0.038290 -0.382569 -0.008850
			CHANNELS 3 Zrotation Yrotation Xrotation
			JOINT RightFoot
			{
				OFFSET 0.015774 -0.398415 -0.042312
				CHANNELS 3 Zrotation Yrotation Xrotation
				JOINT RightToe
				{
					OFFSET -0.025372 -0.048144 0.123348
					CHANNELS 3 Zrotation Yrotation Xrotation
					End Site
					{
						OFFSET 0.000000 0.000000 0.000000
					}
				}
			}
		}
	}
	JOINT Spine
	{
		OFFSET -0.002533 0.108963 -0.026696
		CHANNELS 3 Zrotation Yrotation Xrotation
		JOINT Spine1
		{
			OFFSET 0.005487 0.135180 0.001092
			CHANNELS 3 Zrotation Yrotation Xrotation
			JOINT Spine2
			{
				OFFSET 0.001457 0.052922 0.025425
				CHANNELS 3 Zrotation Yrotation Xrotation
				JOINT Neck
				{
					OFFSET -0.002778 0.213870 -0.042857
					CHANNELS 3 Zrotation Yrotation Xrotation
					JOINT Head
					{
						OFFSET 0.005152 0.064970 0.051349
						CHANNELS 3 Zrotation Yrotation Xrotation
						End Site
						{
							OFFSET 0.000000 0.000000 0.000000
						}
					}
				}
				JOINT LeftShoulder
				{
					OFFSET 0.078845 0.121749 -0.034090
					CHANNELS 3 Zrotation Yrotation Xrotation
					JOINT LeftArm
					{
						OFFSET 0.090977 0.030469 -0.008868
						CHANNELS 3 Zrotation Yrotation Xrotation
						JOINT LeftForeArm
						{
							OFFSET 0.259612 -0.012772 -0.027456
							CHANNELS 3 Zrotation Yrotation Xrotation
							JOINT LeftHand
							{
								OFFSET 0.249234 0.008986 -0.001171
								CHANNELS 3 Zrotation Yrotation Xrotation
								End Site
								{
									OFFSET 0.000000 0.000000 0.000000
								}
							}
						}
					}
				}
				JOINT RightShoulder
				{
					OFFSET -0.081759 0.118833 -0.038615
					CHANNELS 3 Zrotation Yrotation Xrotation
					JOINT RightArm
					{
						OFFSET -0.096012 0.032551 -0.009143
						CHANNELS 3 Zrotation Yrotation Xrotation
						JOINT RightForeArm
						{
							OFFSET -0.253742 -0.013329 -0.021401
							CHANNELS 3 Zrotation Yrotation Xrotation
							JOINT RightHand
							{
								OFFSET -0.255298 0.007772 -0.005559
								CHANNELS 3 Zrotation Yrotation Xrotation
								End Site
								{
									OFFSET 0.000000 0.000000 0.000000
								}
							}
						}
					}
				}
			}
		}
	}
}
MOTION
Frames: 10
Frame Time: 0.050000
-0.079640 0.960438 -0.015554 -2.017473 -15.317278 10.902047 -0.619008 -0.477710 -4.825190 6.625980 -0.076883 -7.593324 3.913618 9.291630 12.698778 0.000000 0.000000 0.000000 -4.009722 2.196658 -21.667221 -1.808981 0.549958 6.027249 4.659417 2.718595 10.867635 0.000000 0.000000 0.000000 0.138178 -0.238209 7.022899 5.599111 -2.292437 -3.743713 2.315936 -7.717011 6.857126 -2.658032 1.094204 -15.995428 0.000000 0.000000 0.000000 -4.967564 -4.890659 2.826089 -63.689634 -18.895384 5.179535 -34.763628 -69.562152 33.577665 0.000000 0.000000 0.000000 -1.418354 5.345718 1.836530 50.849534 6.900944 -3.232313 124.327939 60.243782 86.276607 0.000000 0.000000 0.000000 
-0.087587 0.961026 -0.016280 -1.856484 -16.325783 10.849291 -0.274779 -0.465783 -4.787650 5.990244 -0.071686 -7.430419 4.264462 9.756024 12.713834 0.000000 0.000000 0.000000 -3.865730 2.272362 -21.873900 -1.838239 0.528197 5.685071 4.711114 2.637162 10.925081 0.000000 0.000000 0.000000 -0.245413 -0.200023 7.575127 5.595990 -2.285884 -3.821471 2.014433 -6.670480 7.275837 -2.512944 1.055931 -15.813555 0.000000 0.000000 0.000000 -5.403786 -4.279215 2.572917 -62.522477 -16.915555 3.619017 -43.032650 -71.951856 41.720439 0.000000 0.000000 0.000000 -0.809415 7.409510 2.336313 51.583783 10.392097 -1.820814 124.485585 63.521348 91.238826 0.000000 0.000000 0.000000 
-0.096489 0.961744 -0.017139 -1.490578 -17.713880 10.937946 -0.437657 -0.511430 -5.248871 6.129284 -0.140110 -6.921063 4.965516 10.768203 12.944495 0.000000 0.000000 0.000000 -4.054983 2.373685 -22.438487 -0.822941 0.397774 5.578634 4.641916 1.970297 11.412995 0.000000 0.000000 0.000000 -0.644086 -0.144832 7.685734 5.058134 -2.075301 -3.678130 2.134356 -5.458481 6.849059 -2.924851 1.357962 -15.885253 0.000000 0.000000 0.000000 -5.258045 -5.461849 3.038223 -61.271409 -18.692767 4.371161 -34.342586 -73.382844 35.460601 0.000000 0.000000 0.000000 -0.014123 10.839382 3.263671 51.548420 16.710523 0.952697 117.171316 70.234882 91.483953 0.000000 0.000000 0.000000 
-0.106133 0.962066 -0.018733 -1.496714 -17.887174 10.853908 0.348153 -0.482492 -5.258518 5.618147 -0.113931 -6.920614 5.203772 11.146215 12.737303 0.000000 0.000000 0.000000 -3.393714 2.422978 -22.256674 -0.788199 0.379334 5.367132 4.232674 1.230842 11.205598 0.000000 0.000000 0.000000 -0.628676 -0.150526 8.162326 5.160866 -2.123963 -3.407874 1.950456 -4.964356 6.087764 -2.854648 1.408783 -14.681346 0.000000 0.000000 0.000000 -5.566429 -7.503574 3.953966 -59.085057 -22.883413 6.202068 -11.138817 -73.197700 17.038400 0.000000 0.000000 0.000000 0.686238 15.828650 4.778918 51.259865 24.953167 4.530586 83.671820 78.514275 67.795971 0.000000 0.000000 0.000000 
-0.116045 0.961893 -0.021325 -1.538907 -18.123958 11.180536 1.216550 -0.515155 -6.267786 5.122933 -0.155658 -6.190899 5.295840 11.254202 12.234852 0.000000 0.000000 0.000000 -3.245485 2.498034 -22.621112 -0.305526 0.327757 5.425455 4.308216 1.217471 11.417819 0.000000 0.000000 0.000000 -0.651598 -0.147298 8.647602 4.455055 -1.845553 -3.066818 2.446362 -4.256195 5.515059 -3.444863 1.820811 -14.835725 0.000000 0.000000 0.000000 -3.887823 -11.442122 5.369118 -57.437921 -29.356074 9.550316 15.628243 -67.763617 -3.014173 0.000000 0.000000 0.000000 0.075876 20.102696 6.252546 51.858581 33.728156 8.340316 19.209728 75.859645 12.403345 0.000000 0.000000 0.000000 
-0.125110 0.961639 -0.024505 -1.756840 -17.688539 11.462215 2.102673 -0.516242 -7.058213 4.899555 -0.172055 -5.807918 4.977106 10.740144 11.766446 0.000000 0.000000 0.000000 -2.344432 2.635722 -22.973987 -0.569009 0.410298 6.198723 3.942133 0.907513 10.855432 0.000000 0.000000 0.000000 -0.674766 -0.149337 9.007574 4.126656 -1.724292 -2.279833 2.732072 -4.023717 5.188902 -4.266365 2.364612 -15.057133 0.000000 0.000000 0.000000 -3.523796 -15.389728 6.984013 -53.581722 -36.088195 12.090810 27.525289 -58.382606 -9.571498 0.000000 0.000000 0.000000 0.575677 24.455960 7.722287 48.606969 40.745682 10.657812 -5.217434 64.658360 -4.374501 0.000000 0.000000 0.000000 
-0.132880 0.961419 -0.026954 -1.654607 -17.084012 11.899151 2.580912 -0.558111 -8.357040 4.522523 -0.205218 -5.046538 4.840093 10.555495 11.937894 0.000000 0.000000 0.000000 -2.113178 2.769772 -23.817471 -1.047005 0.526197 6.973661 4.360137 1.558868 11.301832 0.000000 0.000000 0.000000 -0.570966 -0.169307 9.589890 3.819500 -1.602862 -1.613623 2.872486 -3.992674 4.551281 -5.444875 3.113269 -15.227768 0.000000 0.000000 0.000000 -2.801618 -19.045162 8.391810 -50.853092 -42.085972 14.443833 31.192431 -48.732293 -9.765680 0.000000 0.000000 0.000000 -0.172375 27.851507 8.907547 45.516502 45.717440 11.682366 -13.430985 54.691443 -7.128542 0.000000 0.000000 0.000000 
-0.139418 0.961307 -0.027664 -1.484971 -16.006360 11.941538 2.540149 -0.612205 -9.236929 4.752727 -0.253637 -4.576821 4.042821 9.310068 11.765997 0.000000 0.000000 0.000000 -1.799702 2.805084 -24.065391 -1.483862 0.654840 7.885061 4.033138 1.392145 10.778634 0.000000 0.000000 0.000000 -0.334855 -0.216552 10.225151 3.382531 -1.429361 -0.987502 3.168588 -4.379204 4.419793 -6.317119 3.628951 -15.788844 0.000000 0.000000 0.000000 -2.944459 -22.337133 9.871142 -48.593220 -46.255202 15.711888 32.417160 -41.734293 -8.884573 0.000000 0.000000 0.000000 -0.446215 29.379764 9.437621 42.103446 47.398732 11.092385 -15.920810 49.207176 -7.102540 0.000000 0.000000 0.000000 
-0.145769 0.961196 -0.026451 -1.383422 -15.227622 12.238143 2.423684 -0.665006 -9.987159 5.091187 -0.322688 -3.989275 3.743017 8.910818 12.120639 0.000000 0.000000 0.000000 -1.842205 2.823593 -24.426661 -1.703616 0.714864 8.260899 4.037658 1.541535 10.741047 0.000000 0.000000 0.000000 -0.067092 -0.265305 10.485250 3.692955 -1.573847 -0.358210 2.687735 -4.608120 4.117520 -6.714884 3.914970 -15.501083 0.000000 0.000000 0.000000 -3.827157 -23.535466 10.646446 -49.580851 -48.319548 17.155329 32.220004 -39.344013 -8.345474 0.000000 0.000000 0.000000 -0.730988 29.835020 9.610325 41.949265 46.888041 10.915961 -16.484195 47.864722 -7.035880 0.000000 0.000000 0.000000 
-0.152555 0.961917 -0.023996 -1.195300 -14.155938 12.446311 2.406897 -0.692077 -10.275450 5.068189 -0.291924 -4.235052 3.082708 7.913471 11.975342 0.000000 0.000000 0.000000 -1.909759 2.725751 -24.110343 -1.691891 0.694080 8.097742 4.318592 2.387716 10.586544 0.000000 0.000000 0.000000 -0.190436 -0.257464 10.414517 3.791157 -1.614646 -0.750568 2.496869 -5.009488 4.345207 -7.163351 4.235486 -15.040313 0.000000 0.000000 0.000000 -5.034099 -24.944226 11.652990 -51.755012 -48.284931 17.924073 31.645497 -38.460196 -7.983168 0.000000 0.000000 0.000000 -0.079117 29.216232 9.459304 44.130380 43.885296 10.674264 -16.054194 50.144295 -7.320452 0.000000 0.000000 0.000000 
